<svg width="135" height="49" viewBox="0 0 135 49" fill="none" xmlns="http://www.w3.org/2000/svg"> <path d="M13.1576 10.6018V4.12475C13.1576 3.20829 12.7945 2.3564 11.2811 2.3564C11.0264 2.32251 10.7673 2.34494 10.5224 2.42205C10.2776 2.49916 10.0532 2.62903 9.86537 2.80227C9.67755 2.97552 9.53104 3.18781 9.43643 3.42381C9.34181 3.65981 9.30147 3.91362 9.31829 4.16691V10.6009H6.57927V4.12386C6.57927 3.2074 6.21612 2.35551 4.70272 2.35551C4.44804 2.32162 4.18891 2.34405 3.94408 2.42116C3.69924 2.49827 3.47481 2.62812 3.287 2.80137C3.09918 2.97461 2.95267 3.18691 2.85806 3.42291C2.76344 3.6589 2.7231 3.91272 2.73992 4.166V10.6H0V0.287649H2.45848L2.50115 1.67219H2.52294C2.95418 0.670545 3.92469 0.0105546 5.60968 0.0105546C6.22452 -0.0387266 6.84091 0.0852545 7.38728 0.368105C7.93365 0.650956 8.38759 1.08107 8.69641 1.60852C9.06085 1.07907 9.55919 0.653031 10.1419 0.372703C10.7247 0.0923744 11.3716 -0.0324816 12.0183 0.0105546C14.4123 0.0105546 15.8576 1.37448 15.8576 3.61092V10.5991L13.1576 10.6018Z" transform="translate(34.2092 27.9602)" fill="white"/> <path d="M5.41539 10.8873C4.32909 10.8685 3.27262 10.5331 2.37874 9.9231C1.48486 9.31311 0.79344 8.45578 0.391351 7.45883C-0.0107376 6.46188 -0.105559 5.36979 0.11881 4.31978C0.343179 3.26977 0.876723 2.30868 1.65241 1.55727C2.42809 0.805855 3.41131 0.297648 4.47852 0.0964956C5.54573 -0.104657 6.64932 0.0102195 7.65063 0.426694C8.65194 0.843168 9.5063 1.54266 10.1064 2.43728C10.7064 3.33189 11.0254 4.38173 11.0233 5.45487C11.0345 6.18041 10.8964 6.90064 10.6171 7.57181C10.3379 8.24298 9.92347 8.85106 9.39898 9.35914C8.87449 9.86722 8.25089 10.2647 7.56609 10.5274C6.88129 10.7901 6.14957 10.9125 5.41539 10.8873ZM5.41539 2.38627C4.78406 2.33486 4.15172 2.4727 3.60094 2.78179C3.05016 3.09087 2.60654 3.55683 2.32802 4.11881C2.04951 4.68079 1.94904 5.31268 2.03975 5.93193C2.13045 6.55118 2.4081 7.12902 2.83645 7.58998C3.2648 8.05095 3.82392 8.37362 4.44081 8.51584C5.0577 8.65806 5.70368 8.61323 6.29437 8.3872C6.88506 8.16116 7.393 7.76444 7.75188 7.24884C8.11076 6.73323 8.30388 6.12271 8.30602 5.49701C8.32839 5.10406 8.27082 4.71066 8.13673 4.34003C8.00264 3.96941 7.79474 3.62908 7.5253 3.33912C7.25587 3.04917 6.93034 2.81547 6.56796 2.65181C6.20558 2.48816 5.81368 2.39786 5.41539 2.38627Z" transform="translate(52.1522 27.9734)" fill="white"/> <path d="M8.25086 16.2129V14.9987H8.22908C7.8707 15.495 7.38837 15.8912 6.829 16.1487C6.26963 16.4063 5.65229 16.5164 5.03705 16.4684C4.3423 16.4544 3.65764 16.3014 3.02442 16.0188C2.3912 15.7361 1.82255 15.3296 1.35282 14.8238C0.883086 14.318 0.522015 13.7234 0.291412 13.0759C0.0608093 12.4285 -0.0345479 11.7416 0.0111133 11.0567C-0.0256515 10.3499 0.0849697 9.64312 0.336102 8.98027C0.587234 8.31742 0.973522 7.71258 1.47104 7.20326C1.96856 6.69393 2.56669 6.29098 3.22836 6.01937C3.89003 5.74776 4.60112 5.61328 5.31757 5.62429C6.28793 5.60139 7.24266 5.86864 8.05659 6.39099V0H10.7312V16.2129H8.25086ZM8.0357 9.01213C7.73755 8.69214 7.37336 8.43906 6.96772 8.26998C6.56208 8.10089 6.12444 8.01975 5.68434 8.03201C4.88676 8.07852 4.1373 8.42425 3.58926 8.99849C3.04121 9.57272 2.73597 10.3321 2.73597 11.1212C2.73597 11.9104 3.04121 12.6698 3.58926 13.244C4.1373 13.8182 4.88676 14.164 5.68434 14.2105C6.1462 14.2231 6.60383 14.1204 7.01485 13.912C7.42587 13.7035 7.77698 13.3959 8.0357 13.0178V9.01213Z" transform="translate(64.5897 22.3491)" fill="white"/> <path d="M7.83063 10.9569C7.44962 10.8783 7.09675 10.7006 6.80851 10.4423C6.52027 10.1839 6.30711 9.85417 6.19103 9.48719C5.92519 9.968 5.52107 10.3602 5.02969 10.6143C4.53832 10.8684 3.98174 10.973 3.43024 10.9148C2.98237 10.9323 2.53558 10.8594 2.11715 10.7007C1.69872 10.542 1.31743 10.3008 0.996483 9.99177C0.675538 9.68273 0.421687 9.31235 0.250422 8.90323C0.0791575 8.4941 -0.0059447 8.05482 0.000322633 7.61214C0.000322633 5.67341 1.59634 4.47986 3.49468 4.28885L5.78068 4.07544V3.58582C5.78068 2.81911 5.21961 2.2219 3.9477 2.2219C2.92301 2.23869 1.9201 2.51669 1.03619 3.02895L0.540502 0.898325C1.61541 0.285015 2.8401 -0.0251592 4.08116 0.00159552C6.64768 0.00159552 8.43891 1.27943 8.43891 3.73019V7.50094C8.38749 7.90677 8.48556 8.31733 8.71525 8.65763C8.94494 8.99794 9.2909 9.24528 9.68994 9.35448L7.83063 10.9569ZM5.7816 5.99265L4.142 6.12087C3.94047 6.11345 3.73944 6.14577 3.5507 6.21594C3.36196 6.28611 3.18928 6.39272 3.04272 6.52955C2.89616 6.66638 2.77867 6.83068 2.69712 7.01287C2.61557 7.19505 2.5716 7.39146 2.56776 7.59062C2.56778 7.75557 2.60178 7.91879 2.66769 8.07036C2.73361 8.22192 2.83005 8.35865 2.95115 8.47223C3.07226 8.58581 3.21549 8.67387 3.37214 8.73104C3.52879 8.78821 3.69559 8.81329 3.86237 8.80478C4.1175 8.80912 4.37088 8.76234 4.60721 8.66726C4.84353 8.57219 5.05789 8.43079 5.23735 8.2516C5.4168 8.07242 5.55763 7.85917 5.65133 7.62473C5.74502 7.39029 5.78964 7.13952 5.78248 6.88757L5.7816 5.99265Z" transform="translate(77.2388 27.9458)" fill="white"/> <path d="M2.84116 16.5967C2.43532 16.5759 2.038 16.4739 1.67336 16.2967C1.30872 16.1195 0.984402 15.8708 0.720115 15.5659C0.455828 15.261 0.257087 14.9062 0.136023 14.523C0.0149581 14.1398 -0.025906 13.7363 0.0158905 13.3371V0H2.73402V13.0169C2.72455 13.4033 2.86407 13.7789 3.12431 14.0676C3.38455 14.3562 3.74607 14.5365 4.13576 14.5719L2.84116 16.5967Z" transform="translate(88.2029 22.3706)" fill="white"/> <path d="M13.1576 10.6018V4.12471C13.1576 3.20825 12.7945 2.35635 11.2811 2.35635C11.0264 2.3223 10.7672 2.34462 10.5223 2.42166C10.2774 2.49871 10.0528 2.62857 9.86499 2.80185C9.67714 2.97512 9.53063 3.18748 9.43608 3.42356C9.34152 3.65964 9.30128 3.91354 9.31827 4.16686V10.6009H6.57926V4.12382C6.57926 3.20736 6.21612 2.35546 4.70272 2.35546C4.44804 2.32158 4.18891 2.34401 3.94408 2.42112C3.69924 2.49822 3.4748 2.62808 3.28698 2.80133C3.09917 2.97457 2.95268 3.18686 2.85807 3.42286C2.76346 3.65886 2.72308 3.91268 2.7399 4.16596V10.6H0V0.287606H2.45847L2.50205 1.67215H2.52385C2.95509 0.670502 3.92559 0.0105115 5.61058 0.0105115C6.22541 -0.0386611 6.84175 0.0853726 7.3881 0.368213C7.93445 0.651053 8.38841 1.0811 8.6973 1.60848C9.06175 1.07903 9.56011 0.652988 10.1429 0.37266C10.7256 0.0923312 11.3725 -0.0325248 12.0192 0.0105115C14.4132 0.0105115 15.8585 1.37444 15.8585 3.61088V10.5991L13.1576 10.6018Z" transform="translate(93.8703 27.9602)" fill="white"/> <path d="M7.82969 10.9572C7.44867 10.8785 7.09581 10.7009 6.80757 10.4425C6.51933 10.1841 6.3062 9.8544 6.19012 9.48742C5.92419 9.96815 5.52005 10.3603 5.02869 10.6144C4.53734 10.8685 3.98079 10.9731 3.4293 10.915C2.98151 10.9324 2.53481 10.8594 2.11649 10.7007C1.69816 10.5419 1.31697 10.3007 0.996122 9.99166C0.675276 9.68263 0.421548 9.3123 0.250339 8.90324C0.0791295 8.49418 -0.00593921 8.05497 0.000322158 7.61237C0.000322158 5.67364 1.59634 4.48009 3.49468 4.28908L5.78068 4.07567V3.58605C5.78068 2.81935 5.21959 2.22213 3.94767 2.22213C2.92298 2.23892 1.9201 2.51692 1.03618 3.02918L0.518697 0.898557C1.59942 0.283307 2.83046 -0.0268891 4.0775 0.00182749C6.64403 0.00182749 8.43523 1.27966 8.43523 3.73042V7.50117C8.38872 7.90627 8.48881 8.31457 8.71777 8.6538C8.94673 8.99303 9.28978 9.24131 9.68625 9.35471L7.82969 10.9572ZM5.78068 5.99288L4.14106 6.1211C3.9395 6.11356 3.73845 6.14579 3.54965 6.21591C3.36085 6.28604 3.18811 6.39264 3.04153 6.5295C2.89494 6.66635 2.77743 6.83071 2.69593 7.01295C2.61442 7.19519 2.57053 7.39165 2.56682 7.59085C2.56875 7.75517 2.60403 7.91743 2.67055 8.06806C2.73706 8.21868 2.83348 8.35461 2.95409 8.46781C3.07469 8.581 3.21703 8.66917 3.37272 8.72709C3.52841 8.78501 3.69427 8.81149 3.86051 8.80501C4.11565 8.80935 4.36903 8.76257 4.60535 8.6675C4.84167 8.57242 5.05603 8.43102 5.23549 8.25183C5.41495 8.07265 5.55583 7.8594 5.64952 7.62496C5.74322 7.39052 5.78784 7.13975 5.78068 6.8878V5.99288Z" transform="translate(111.6 27.9456)" fill="white"/> <path d="M1.55241 3.06861C1.18779 2.95505 0.856293 2.75629 0.586032 2.48919C0.315771 2.22208 0.114757 1.89453 0 1.53431C0.114825 1.17413 0.315837 0.846603 0.586087 0.57951C0.856338 0.312417 1.18782 0.113628 1.55241 0C1.91522 0.108142 2.24418 0.305734 2.50831 0.57416C2.77245 0.842586 2.96309 1.17302 3.06221 1.53431C2.95995 1.89408 2.76828 2.22289 2.5046 2.49085C2.24092 2.75881 1.91358 2.95742 1.55241 3.06861ZM0.150664 15.0848V4.7724H2.93326V15.0848H0.150664Z" transform="translate(122.58 23.4773)" fill="white"/> <path d="M3.38902 10.6739C2.31389 10.7011 1.25014 10.4514 0.302325 9.94937L0 7.37127C0.93496 8.08258 2.07654 8.47836 3.25648 8.50025C4.0327 8.50025 4.57195 8.09583 4.57195 7.56317C4.57195 6.98837 4.16254 6.66644 3.36453 6.43419C1.33727 5.7733 0.172496 4.8147 0.172496 3.11091C0.172496 1.23585 1.68226 0.000150112 3.86113 0.000150112C4.86806 -0.00656386 5.86342 0.212022 6.77261 0.639516L6.29779 2.72711C5.61428 2.32017 4.83075 2.10645 4.03268 2.10926C3.32092 2.10926 2.88971 2.46795 2.88971 3.00599C2.88971 3.49561 3.25285 3.7727 4.09807 4.02826C6.27694 4.70978 7.37638 5.75357 7.37638 7.5013C7.33643 9.20688 6.0418 10.6739 3.38902 10.6739Z" transform="translate(127.624 28.0774)" fill="white"/> <path d="M0 23.7122V36.7085L24.0066 13.0169V0L0 23.7122Z" transform="translate(12.4885)" fill="url(#paint0_linear)"/> <path d="M0 12.9748L15.2067 22.7115V9.79856L0 0V12.9748Z" transform="translate(12.4885 23.7122)" fill="url(#paint1_linear)"/> <path d="M0 13.0169L11.3483 20.197H12.4913V7.9253L0 0V13.0169Z" transform="translate(0 15.7869)" fill="url(#paint2_linear)"/> <path d="M0 12.2717V25.2878L12.4885 13.016V0L0 12.2717Z" transform="translate(0 23.7122)" fill="url(#paint3_linear)"/> <defs> <linearGradient id="paint0_linear" x2="1" gradientUnits="userSpaceOnUse" gradientTransform="scale(24.0066 36.7085)"> <stop stop-color="#006A69"/> <stop offset="0.25" stop-color="#007F84"/> <stop offset="0.574" stop-color="#0097A8"/> <stop offset="0.835" stop-color="#00A8C1"/> <stop offset="1" stop-color="#00B1CD"/> </linearGradient> <linearGradient id="paint1_linear" x2="1" gradientUnits="userSpaceOnUse" gradientTransform="translate(15.2067 22.7115) scale(15.2067 22.7115) rotate(180)"> <stop stop-color="#166E55"/> <stop offset="1" stop-color="#3F9E71"/> </linearGradient> <linearGradient id="paint2_linear" x2="1" gradientUnits="userSpaceOnUse" gradientTransform="translate(12.4913 20.0254) scale(12.2789 19.8537) rotate(180)"> <stop stop-color="#547424"/> <stop offset="0.283" stop-color="#63842A"/> <stop offset="1" stop-color="#8CAD34"/> </linearGradient> <linearGradient id="paint3_linear" x2="1" gradientUnits="userSpaceOnUse" gradientTransform="scale(12.4885 25.2878)"> <stop stop-color="#2B9E8F"/> <stop offset="1" stop-color="#046666"/> </linearGradient> </defs> </svg>
